#!OML:ASF I:\AllaLogoMonkeySwing\Project 1\Capture day 1\Session 1\Subject1.ASF
:FULLY-SPECIFIED
:DEGREES
342
root 0.805356 17.2129 21.4203 -2.38579 183.307 -0.682436
lowerback 8.21999 0.0986626 -4.26342
upperback -1.27973 -0.2165 1.72713
thorax -5.9427 0.0666041 4.24617
lowerneck -12.5079 0.357298 -2.40242
upperneck 27.8264 -0.651139 -0.0215086
head 11.0525 -1.2208 0.189409
rclavicle 8.82107e-016 9.14409e-015
rhumerus -31.4325 -17.7435 -80.1591
rradius 26.2061
rwrist 0.450724
rhand -9.48706 -38.2421
rfingers 7.12502
rthumb 16.4775 -67.5623
lclavicle 8.82107e-016 9.14409e-015
lhumerus -44.2567 21.7671 76.7922
lradius 33.8408
lwrist -6.83911
lhand -3.58375 -14.076
lfingers 7.12502
lthumb 22.1536 14.6746
rfemur -10.3372 -0.46073 18.2302
rtibia 35.2522
rfoot -21.7646 -8.04148
rtoes 10.5456
lfemur -6.0103 2.62867 -21.1723
ltibia 29.3114
lfoot -22.09 3.30038
ltoes -25.2017
343
root 0.814159 17.2135 21.4194 -2.39428 183.332 -0.699897
lowerback 8.23519 0.110246 -4.3036
upperback -1.26059 -0.20519 1.73846
thorax -5.93235 0.0730049 4.2795
lowerneck -12.4878 0.311777 -2.48859
upperneck 27.89 -0.73223 0.0536973
head 11.0742 -1.26294 0.219763
rclavicle 1.73937e-016 -1.63003e-014
rhumerus -31.389 -17.7947 -80.2157
rradius 26.2195
rwrist 0.431433
rhand -9.41665 -38.1458
rfingers 7.12502
rthumb 16.5453 -67.4604
lclavicle 1.73937e-016 -1.63003e-014
lhumerus -44.1423 21.4644 77.1783
lradius 34.4481
lwrist -6.05146
lhand -4.35619 -14.2125
lfingers 7.12502
lthumb 21.4119 14.6244
rfemur -10.3195 -0.490762 18.2393
rtibia 35.2321
rfoot -21.7814 -8.0356
rtoes 10.682
lfemur -6.00902 2.59513 -21.1588
ltibia 29.3275
lfoot -22.0819 3.27645
ltoes -25.2179
344
root 0.821152 17.2151 21.4167 -2.36553 183.357 -0.64385
lowerback 8.20439 0.0955825 -4.24445
upperback -1.24881 -0.216097 1.77378
thorax -5.90111 0.0648301 4.28421
lowerneck -12.4539 0.280862 -2.65623
upperneck 27.9246 -0.79072 0.203855
head 11.0824 -1.29287 0.294806
rclavicle -9.47954e-015 -1.39149e-014
rhumerus -31.3041 -17.8109 -80.2684
rradius 26.1218
rwrist 0.528985
rhand -9.45443 -38.1053
rfingers 7.12502
rthumb 16.509 -67.4229
lclavicle -9.47954e-015 -1.39149e-014
lhumerus -44.0168 21.2548 77.5342
lradius 34.9888
lwrist -5.38762
lhand -4.75086 -14.3411
lfingers 7.12502
lthumb 21.0328 14.5384
rfemur -10.34 -0.555938 18.3209
rtibia 35.226
rfoot -21.8377 -7.99986
rtoes 10.8595
lfemur -6.031 2.60234 -21.0553
ltibia 29.3278
lfoot -22.1127 3.17893
ltoes -25.0607
345
root 0.82792 17.216 21.4126 -2.28918 183.351 -0.647494
lowerback 8.09231 0.0903214 -4.21349
upperback -1.24021 -0.215711 1.76685
thorax -5.82822 0.0617756 4.25772
lowerneck -12.3746 0.255164 -2.74942
upperneck 27.9615 -0.841997 0.265329
head 11.0819 -1.32465 0.325658
rclavicle 6.39838e-016 -1.59028e-015
rhumerus -31.197 -17.8634 -80.3112
rradius 25.9132
rwrist 0.653815
rhand -9.46118 -37.9564
rfingers 7.12502
rthumb 16.5025 -67.2746
lclavicle 6.39838e-016 -1.59028e-015
lhumerus -43.9005 21.1216 77.7507
lradius 35.4845
lwrist -4.83502
lhand -5.01219 -14.4542
lfingers 7.12502
lthumb 20.7817 14.4529
rfemur -10.4125 -0.598027 18.3378
rtibia 35.2301
rfoot -21.8908 -7.92079
rtoes 11.0095
lfemur -6.09089 2.60393 -21.0218
ltibia 29.3203
lfoot -22.1322 3.11085
ltoes -24.7865
346
root 0.835249 17.2154 21.4086 -2.27452 183.333 -0.676886
lowerback 8.03441 0.106775 -4.1934
upperback -1.20732 -0.191179 1.72249
thorax -5.76309 0.0702194 4.19517
lowerneck -12.2435 0.223823 -2.68804
upperneck 27.9956 -0.913303 0.212245
head 11.0694 -1.36488 0.285751
rclavicle 4.03781e-015 -7.95139e-016
rhumerus -31.0925 -18.0646 -80.3314
rradius 25.6463
rwrist 0.862696
rhand -9.33193 -37.7093
rfingers 7.12502
rthumb 16.6269 -67.0171
lclavicle 4.03781e-015 -7.95139e-016
lhumerus -43.7667 20.8964 77.9478
lradius 36.0051
lwrist -4.13112
lhand -4.96371 -14.5661
lfingers 7.12502
lthumb 20.8283 14.3359
rfemur -10.4285 -0.621987 18.3285
rtibia 35.2401
rfoot -21.9085 -7.81371
rtoes 11.235
lfemur -6.0902 2.53577 -21.0304
ltibia 29.3151
lfoot -22.1112 3.15994
ltoes -24.8332
